# Blender v2.92.0 OBJ File: ''
# www.blender.org
mtllib base_sem_helice.mtl
o cabo_Cube.002
v 0.098005 0.221389 -0.091242
v -0.082010 0.201542 -0.090412
v 0.097982 0.201542 -0.088767
v -0.081988 0.221389 -0.092887
v -0.081104 0.189169 -0.189639
v -0.081081 0.209015 -0.192114
v 0.098889 0.189169 -0.187995
v 0.098912 0.209015 -0.190469
v 0.237855 1.546691 0.564679
v 0.240910 1.554877 0.230339
v 0.014392 1.550844 0.395452
v 0.237106 0.885682 0.387714
v -0.212126 1.546811 0.560565
v -0.212426 -0.005713 0.593364
v 0.012723 0.770519 0.579021
v 0.238187 -0.003356 -0.321202
v 0.237555 -0.005713 0.597476
v -0.209071 1.554997 0.226225
v 0.011558 0.899335 0.219664
v -0.210514 0.883810 0.384114
v -0.213177 0.006854 -0.331729
v -0.211754 -0.003555 -0.324750
v -0.220103 0.237193 0.208882
v 0.236367 0.233616 0.213144
v 0.010619 0.212301 0.006593
v 0.096906 0.216480 0.031268
v -0.083064 0.236331 0.027182
v -0.083087 0.216480 0.029623
v -0.082029 0.202323 -0.086176
v -0.082006 0.222173 -0.088618
v 0.097964 0.202323 -0.084532
v 0.097986 0.222173 -0.086973
v 0.096928 0.236331 0.028827
v 0.007461 0.229252 -0.029896
v 0.248849 0.190928 -0.205007
v 0.244401 0.099849 -0.331935
v 0.062507 0.135647 -0.280831
v -0.217531 0.190760 -0.202154
vt 0.625000 0.000000
vt 0.375000 0.250000
vt 0.375000 0.000000
vt 0.625000 0.250000
vt 0.375000 0.500000
vt 0.625000 0.500000
vt 0.375000 0.750000
vt 0.625000 0.750000
vt 0.375000 1.000000
vt 0.125000 0.500000
vt 0.125000 0.750000
vt 0.875000 0.500000
vt 0.875000 0.750000
vt 0.875000 0.750000
vt 0.625000 0.750000
vt 0.750000 0.625000
vt 0.625000 1.000000
vt 0.562074 0.874149
vt 0.625000 0.250000
vt 0.375000 0.250000
vt 0.500005 0.124995
vt 0.125000 0.500000
vt 0.375000 0.750000
vt 0.125000 0.750000
vt 0.625000 0.500000
vt 0.562813 0.625626
vt 0.517487 0.392487
vt 0.437500 0.500000
vt 0.375000 0.500000
vt 0.500000 0.500000
vt 0.500000 0.750000
vt 0.484458 0.625661
vt 0.375000 0.000000
vt 0.625000 0.250000
vt 0.375000 0.250000
vt 0.375000 0.500000
vt 0.625000 0.500000
vt 0.375000 0.750000
vt 0.625000 0.750000
vt 0.625000 1.000000
vt 0.375000 1.000000
vt 0.125000 0.750000
vt 0.125000 0.500000
vt 0.875000 0.500000
vt 0.875000 0.750000
vt 0.750000 0.625000
vt 0.468750 0.750000
vt 0.437500 0.750000
vt 0.449805 0.651558
vt 0.468750 0.500000
vt 0.375000 1.000000
vt 0.875000 0.500000
vt 0.375000 0.000000
vt 0.625000 0.000000
vt 0.625000 1.000000
vt 0.625000 0.000000
vn -0.0091 0.1238 0.9923
vn -1.0000 -0.0000 -0.0091
vn 0.0091 -0.1238 -0.9923
vn 1.0000 -0.0000 0.0091
vn -0.0011 -0.9923 0.1237
vn 0.0011 0.9923 -0.1237
vn 0.0000 0.9997 0.0245
vn 1.0000 -0.0053 0.0039
vn 1.0000 -0.0052 0.0039
vn -0.0091 0.0211 0.9997
vn 0.0000 -1.0000 -0.0026
vn 0.0091 0.0131 -0.9999
vn -1.0000 -0.0041 0.0059
vn 0.0068 -0.5562 -0.8310
vn 0.0038 0.9943 -0.1068
vn -0.0091 0.1221 0.9925
vn 0.0091 -0.1221 -0.9925
vn -0.0011 -0.9926 0.1213
vn 0.0011 0.9926 -0.1213
vn -0.0710 0.6804 -0.7294
vn 1.0000 -0.0054 0.0039
vn 0.0039 0.9943 -0.1068
vn 0.0094 0.0130 -0.9999
vn 1.0000 -0.0053 0.0038
vn -1.0000 -0.0041 0.0060
vn -0.9953 -0.0542 0.0805
vn -0.9905 -0.0867 0.1071
vn -0.9946 -0.0564 0.0876
vn -0.0091 0.1237 0.9923
vn 0.0091 -0.1237 -0.9923
vn 0.0005 -1.0000 -0.0024
vn 0.0208 -0.1047 -0.9943
vn -0.9998 -0.0097 0.0170
vn -1.0000 -0.0023 0.0030
vn -1.0000 -0.0021 0.0026
usemtl Material.005
s off
f 1/1/1 2/2/1 3/3/1
f 4/4/2 5/5/2 2/2/2
f 6/6/3 7/7/3 5/5/3
f 8/8/4 3/9/4 7/7/4
f 2/10/5 7/7/5 3/11/5
f 6/6/6 4/12/6 1/13/6
f 9/14/7 10/15/7 11/16/7
f 10/15/8 9/17/9 12/18/8
f 13/19/10 14/20/10 15/21/10
f 14/22/11 16/23/11 17/24/11
f 18/25/12 10/15/12 19/26/12
f 13/19/13 18/25/13 20/27/13
f 21/28/14 16/23/14 22/29/14
f 23/30/15 24/31/15 25/32/15
f 26/33/16 27/34/16 28/35/16
f 27/34/2 29/36/2 28/35/2
f 30/37/17 31/38/17 29/36/17
f 32/39/4 33/40/4 26/41/4
f 29/36/18 26/42/18 28/43/18
f 27/44/19 33/45/19 34/46/19
f 35/47/20 36/48/20 37/49/20
f 16/23/21 36/48/8 35/47/21
f 16/23/8 35/47/8 24/31/21
f 21/28/20 38/50/20 37/49/20
f 36/48/20 21/28/20 37/49/20
f 38/50/20 35/47/20 37/49/20
f 35/47/22 38/50/22 25/32/22
f 38/50/15 23/30/15 25/32/15
f 24/31/22 35/47/22 25/32/22
f 24/31/23 23/30/23 19/26/23
f 17/51/8 24/31/8 12/18/8
f 9/17/9 17/51/8 12/18/24
f 24/31/8 10/15/8 12/18/8
f 18/25/7 13/52/7 11/16/7
f 13/52/7 9/14/7 11/16/7
f 10/15/7 18/25/7 11/16/7
f 23/30/13 20/27/13 18/25/25
f 14/20/13 20/27/13 23/30/13
f 14/20/13 13/19/13 20/27/13
f 10/15/23 24/31/23 19/26/23
f 23/30/12 18/25/12 19/26/12
f 17/53/10 9/54/10 15/21/10
f 14/20/10 17/53/10 15/21/10
f 9/54/10 13/19/10 15/21/10
f 22/29/13 14/20/13 23/30/13
f 22/29/26 38/50/27 21/28/28
f 17/51/8 16/23/21 24/31/21
f 32/39/19 30/37/19 34/46/19
f 33/45/19 32/39/19 34/46/19
f 30/37/19 27/44/19 34/46/19
f 8/8/6 6/6/6 1/13/6
f 31/38/4 32/39/4 26/41/4
f 1/1/29 4/4/29 2/2/29
f 4/4/2 6/6/2 5/5/2
f 6/6/30 8/8/30 7/7/30
f 8/8/4 1/55/4 3/9/4
f 2/10/5 5/5/5 7/7/5
f 14/22/31 22/29/31 16/23/31
f 21/28/32 36/48/32 16/23/32
f 26/33/16 33/56/16 27/34/16
f 27/34/2 30/37/2 29/36/2
f 30/37/17 32/39/17 31/38/17
f 29/36/18 31/38/18 26/42/18
f 22/29/33 23/30/34 38/50/35
o base_Cube.005
v -0.602817 0.194680 0.599053
v -0.002059 0.190810 -0.205823
v -0.711849 0.191046 -0.205799
v -0.001992 -0.004969 -0.798987
v -0.800321 -0.004965 -0.798936
v 0.000072 -0.006681 0.597155
v -0.599151 -0.007090 0.597792
v -0.684552 -0.006028 -0.208607
v 0.574669 0.188772 0.598108
v -0.001879 0.190835 -0.205902
v 0.707911 0.190046 -0.206000
v -0.001946 -0.004969 -0.799005
v 0.796383 -0.004965 -0.798953
v -0.004010 -0.006681 0.597138
v 0.595214 -0.007090 0.597774
v 0.695799 -0.006028 -0.204709
v 0.000161 0.192876 0.598933
v -0.004099 0.192876 0.598915
vt 0.000000 0.000000
vt 0.000000 0.000000
vt 0.000000 0.000000
vt 0.000000 0.000000
vt 0.000000 0.000000
vt 0.375000 0.750000
vt 0.000000 0.000000
vt 0.625000 0.500000
vt 0.875000 0.750000
vt 0.625000 0.750000
vt 0.375000 1.000000
vt 0.375000 0.750000
vt 0.625000 0.000000
vt 0.375000 0.250000
vt 0.375000 0.000000
vt 0.375000 0.500000
vt 0.125000 0.750000
vt 0.125000 0.500000
vt 0.375000 0.625000
vt 0.875000 0.750000
vt 0.625000 0.500000
vt 0.000000 0.000000
vt 0.625000 0.000000
vt 0.375000 0.250000
vt 0.375000 0.000000
vt 0.375000 0.500000
vt 0.125000 0.750000
vt 0.125000 0.500000
vt 0.625000 0.750000
vt 0.375000 0.625000
vt 0.875000 0.500000
vt 0.625000 1.000000
vt 0.625000 0.250000
vt 0.875000 0.500000
vt 0.625000 0.250000
vt 0.375000 1.000000
vt 0.625000 1.000000
vn 0.1039 -0.9916 -0.0770
vn 0.0010 0.9496 -0.3135
vn -0.0010 -0.9500 0.3123
vn 0.0011 1.0000 0.0018
vn 0.0000 0.9499 -0.3124
vn 0.0038 1.0000 -0.0020
vn -0.0007 1.0000 -0.0053
vn 0.0003 1.0000 -0.0046
vn -0.0001 0.9495 -0.3139
vn 0.0002 0.9496 -0.3136
vn -0.0000 0.9495 -0.3138
vn 1.0000 0.0010 -0.0025
vn 1.0000 0.0036 -0.0018
vn 1.0000 0.0048 -0.0015
vn 0.0006 -1.0000 -0.0013
vn 0.0003 -1.0000 -0.0015
vn 0.0007 -1.0000 -0.0012
vn -0.9897 0.0153 0.1426
vn -0.9897 0.0153 0.1425
vn 0.0007 -0.0055 1.0000
vn 0.0006 -0.0097 1.0000
vn 0.0011 -0.0062 1.0000
vn -0.0068 -1.0000 0.0014
vn -0.0065 -1.0000 0.0001
vn -0.0071 -1.0000 0.0026
vn 1.0000 -0.0010 0.0025
vn 1.0000 -0.0036 0.0018
vn 1.0000 -0.0048 0.0015
vn 0.0006 1.0000 0.0013
vn 0.0003 1.0000 0.0015
vn 0.0007 1.0000 0.0012
vn -0.9876 0.0601 -0.1449
vn -0.9842 0.0597 -0.1665
vn -0.9876 0.0601 -0.1451
vn -0.0005 0.0045 -1.0000
vn 0.0002 0.0061 -1.0000
vn 0.0011 0.0018 -1.0000
vn 0.0030 1.0000 -0.0026
vn 0.0003 0.9496 -0.3134
vn 1.0000 -0.0004 -0.0028
vn -0.9908 -0.0188 0.1343
vn 0.0002 -0.0089 1.0000
vn -0.0064 -1.0000 0.0000
vn -0.0071 -1.0000 0.0025
vn -0.0068 -1.0000 0.0013
vn 1.0000 0.0004 0.0028
vn 0.0002 1.0000 0.0015
vn -0.9813 -0.1027 -0.1628
vn -0.0013 0.0089 -1.0000
vn -0.9904 0.0604 -0.1241
vn -0.0000 -1.0000 -0.0018
vn -0.0000 1.0000 0.0018
vn -0.0000 -0.9499 0.3124
vn -0.0011 -1.0000 -0.0018
vn 0.0012 -1.0000 -0.0030
vn -0.0019 -1.0000 -0.0030
vn -0.0024 -0.9494 0.3139
vn -0.0010 -0.9496 0.3135
usemtl Material.006
s off
f 47/57/36 40/58/36 48/59/36
f 49/60/37 50/61/37 48/59/37
f 49/60/38 48/59/38 51/62/38
f 47/57/39 49/60/39 40/58/39
f 49/60/40 51/63/40 50/61/40
s 1
f 39/64/41 40/65/42 41/66/43
f 41/66/44 42/67/45 43/68/46
f 40/69/47 44/70/48 42/71/49
f 45/72/50 42/73/51 44/74/52
f 41/66/53 43/68/54 46/75/53
f 44/70/55 39/64/56 45/72/57
f 48/76/58 47/77/59 55/78/60
f 48/79/61 52/80/62 50/81/63
f 53/82/64 50/83/65 52/84/66
f 49/85/67 51/62/68 54/86/69
f 52/80/70 47/77/71 53/82/72
f 39/64/41 55/87/73 40/65/42
f 41/66/44 40/88/74 42/67/45
f 40/69/47 55/89/75 44/70/48
f 46/75/51 42/73/51 45/72/50
f 45/72/76 39/64/76 41/66/76
f 44/70/55 55/89/77 39/64/56
f 47/77/78 56/90/79 48/76/80
f 48/79/61 56/91/81 52/80/62
f 54/86/82 50/83/65 53/82/64
f 53/82/83 47/77/83 49/85/83
f 52/80/70 56/91/84 47/77/71
f 53/82/85 49/85/67 54/86/69
f 45/72/53 41/66/53 46/75/53
f 46/75/51 43/68/86 42/73/51
f 54/86/82 51/62/87 50/83/65
f 50/92/88 51/62/88 49/85/88
f 49/85/89 47/77/90 48/93/91
f 48/93/92 50/92/93 49/85/93
o Cylinder
v 0.020107 1.405643 -0.077878
v 0.081048 1.411069 -0.077835
v 0.081048 1.404030 0.814723
v 0.139647 1.427138 -0.077709
v 0.139647 1.420099 0.814850
v 0.193652 1.453233 -0.077503
v 0.193652 1.446194 0.815055
v 0.240987 1.488350 -0.077226
v 0.240987 1.481311 0.815332
v 0.279835 1.531141 -0.076888
v 0.279835 1.524102 0.815670
v 0.308701 1.579961 -0.076503
v 0.308701 1.572922 0.816055
v 0.326477 1.632934 -0.076086
v 0.326477 1.625895 0.816473
v 0.332479 1.688024 -0.075651
v 0.332479 1.680984 0.816907
v 0.326477 1.743113 -0.075217
v 0.326477 1.736074 0.817342
v 0.308701 1.796086 -0.074799
v 0.308701 1.789047 0.817759
v 0.279835 1.844906 -0.074414
v 0.279835 1.837867 0.818144
v 0.240987 1.887697 -0.074076
v 0.240987 1.880658 0.818482
v 0.193652 1.922815 -0.073799
v 0.193652 1.915775 0.818759
v 0.139647 1.948909 -0.073594
v 0.139647 1.941870 0.818965
v 0.081048 1.964979 -0.073467
v 0.081048 1.957939 0.819091
v 0.020107 1.970404 -0.073424
v 0.020107 1.963365 0.819134
v -0.040834 1.964979 -0.073467
v -0.040834 1.957939 0.819091
v -0.099433 1.948909 -0.073594
v -0.099433 1.941870 0.818965
v -0.153438 1.922814 -0.073799
v -0.153438 1.915775 0.818759
v -0.200774 1.887697 -0.074076
v -0.200774 1.880658 0.818482
v -0.239621 1.844906 -0.074414
v -0.239621 1.837867 0.818144
v -0.268487 1.796086 -0.074799
v -0.268487 1.789047 0.817759
v -0.286263 1.743113 -0.075217
v -0.286263 1.736074 0.817342
v -0.292265 1.688024 -0.075651
v -0.292265 1.684504 0.370624
v -0.286263 1.632934 -0.076086
v -0.286263 1.625894 0.816473
v -0.268487 1.579961 -0.076503
v -0.268487 1.572922 0.816055
v -0.239621 1.531141 -0.076888
v -0.239621 1.524102 0.815670
v -0.200773 1.488350 -0.077226
v -0.200773 1.481311 0.815332
v -0.153437 1.453233 -0.077503
v -0.153437 1.446193 0.815055
v -0.099432 1.427138 -0.077709
v -0.099432 1.420099 0.814850
v -0.040833 1.411069 -0.077835
v -0.082496 1.420460 0.180216
v -0.075611 1.420606 -0.077760
v 0.020107 1.398604 0.814680
v -0.292265 1.680984 0.816907
v -0.040833 1.404030 0.814723
v -0.200773 1.872984 0.818421
v 0.240987 1.866688 0.818371
v 0.193652 1.901805 0.818649
vt 1.000000 1.000000
vt 0.968750 1.000000
vt 0.968750 0.500000
vt 0.937500 1.000000
vt 0.937500 0.500000
vt 0.906250 1.000000
vt 0.906250 0.500000
vt 0.875000 1.000000
vt 0.875000 0.500000
vt 0.843750 1.000000
vt 0.843750 0.500000
vt 0.812500 1.000000
vt 0.812500 0.500000
vt 0.781250 1.000000
vt 0.781250 0.500000
vt 0.750000 1.000000
vt 0.750000 0.500000
vt 0.718750 1.000000
vt 0.718750 0.500000
vt 0.687500 1.000000
vt 0.687500 0.500000
vt 0.656250 1.000000
vt 0.656250 0.500000
vt 0.625000 1.000000
vt 0.625000 0.500000
vt 0.593750 1.000000
vt 0.593750 0.500000
vt 0.562500 1.000000
vt 0.562500 0.500000
vt 0.531250 1.000000
vt 0.531250 0.500000
vt 0.500000 1.000000
vt 0.500000 0.500000
vt 0.468750 1.000000
vt 0.468750 0.500000
vt 0.437500 1.000000
vt 0.437500 0.500000
vt 0.406250 1.000000
vt 0.406250 0.500000
vt 0.375000 1.000000
vt 0.375000 0.500000
vt 0.343750 1.000000
vt 0.343750 0.500000
vt 0.312500 1.000000
vt 0.312500 0.500000
vt 0.281250 1.000000
vt 0.281250 0.500000
vt 0.250000 1.000000
vt 0.250000 0.750002
vt 0.218750 1.000000
vt 0.218750 0.500000
vt 0.187500 1.000000
vt 0.187500 0.500000
vt 0.156250 1.000000
vt 0.156250 0.500000
vt 0.125000 1.000000
vt 0.125000 0.500000
vt 0.093750 1.000000
vt 0.093750 0.500000
vt 0.062500 1.000000
vt 0.062500 0.500000
vt 0.014611 0.203179
vt 0.014612 0.296822
vt 0.010000 0.250000
vt 0.031250 1.000000
vt 0.053468 0.855493
vt 0.049797 1.000000
vt 0.000000 1.000000
vt 0.000000 0.500000
vt 0.841844 0.028269
vt 0.796822 0.014612
vt 0.841844 0.471731
vt 0.250000 0.500000
vt 1.000000 0.500000
vt 0.031250 0.500000
vt 0.971731 0.158156
vt 0.971731 0.341844
vt 0.985388 0.296822
vt 0.419706 0.419706
vt 0.419706 0.080294
vt 0.449553 0.116663
vt 0.703178 0.014612
vt 0.703179 0.485389
vt 0.750000 0.490000
vt 0.616663 0.050447
vt 0.580294 0.080294
vt 0.580294 0.086816
vt 0.080294 0.080294
vt 0.116663 0.050447
vt 0.080295 0.419706
vt 0.028269 0.158156
vt 0.050447 0.116663
vt 0.028269 0.341844
vt 0.750000 0.010000
vt 0.796822 0.485388
vt 0.250000 0.490000
vt 0.250000 0.010000
vt 0.296822 0.014612
vt 0.919705 0.092168
vt 0.949553 0.116663
vt 0.919706 0.080294
vt 0.580295 0.419706
vt 0.616663 0.449553
vt 0.550447 0.116663
vt 0.158156 0.028269
vt 0.116663 0.449553
vt 0.490000 0.250000
vt 0.485388 0.296822
vt 0.485388 0.203178
vt 0.158156 0.471731
vt 0.050447 0.383337
vt 0.341844 0.471731
vt 0.296822 0.485388
vt 0.341844 0.028269
vt 0.883337 0.062321
vt 0.883337 0.449553
vt 0.203179 0.485389
vt 0.203178 0.014612
vt 0.471731 0.341844
vt 0.383337 0.050447
vt 0.383337 0.449553
vt 0.176458 0.477283
vt 0.449553 0.383337
vt 0.471731 0.158156
vt 0.985388 0.203178
vt 0.990000 0.250000
vt 0.919706 0.419706
vt 0.883337 0.050447
vt 0.949553 0.383337
vt 0.658156 0.028269
vt 0.658156 0.471731
vt 0.514611 0.203179
vt 0.514612 0.296822
vt 0.528269 0.341844
vt 0.528269 0.158156
vt 0.550447 0.383337
vt 0.510000 0.250000
vn 0.0887 -0.9960 -0.0079
vn 0.2645 -0.9644 -0.0076
vn 0.4351 -0.9004 -0.0071
vn 0.5958 -0.8031 -0.0063
vn 0.7404 -0.6721 -0.0053
vn 0.8608 -0.5089 -0.0040
vn 0.9480 -0.3181 -0.0025
vn 0.9941 -0.1083 -0.0009
vn 0.9941 0.1083 0.0009
vn 0.9480 0.3181 0.0025
vn 0.8608 0.5089 0.0040
vn 0.7404 0.6721 0.0053
vn 0.5958 0.8031 0.0063
vn 0.4351 0.9004 0.0071
vn 0.2645 0.9644 0.0076
vn 0.0887 0.9960 0.0079
vn -0.0887 0.9960 0.0079
vn -0.2645 0.9644 0.0076
vn -0.4351 0.9004 0.0071
vn -0.5958 0.8031 0.0063
vn -0.7404 0.6721 0.0053
vn -0.8608 0.5089 0.0040
vn -0.9480 0.3181 0.0025
vn -0.9941 0.1083 0.0009
vn -0.9941 -0.1083 -0.0009
vn -0.9480 -0.3181 -0.0025
vn -0.8608 -0.5089 -0.0040
vn -0.7404 -0.6721 -0.0053
vn -0.5958 -0.8031 -0.0063
vn -0.4351 -0.9004 -0.0071
vn -0.0001 0.0079 -1.0000
vn -0.2645 -0.9644 -0.0076
vn -0.0887 -0.9960 -0.0079
vn -0.0000 -0.0079 1.0000
vn -0.2644 -0.9644 -0.0076
vn -0.0000 0.0079 -1.0000
vn -0.0001 -0.0079 1.0000
vn 0.0001 0.0079 -1.0000
vn 0.0001 -0.0079 1.0000
usemtl None
s off
f 57/94/94 58/95/94 59/96/94
f 58/95/95 60/97/95 61/98/95
f 60/97/96 62/99/96 63/100/96
f 62/99/97 64/101/97 65/102/97
f 64/101/98 66/103/98 67/104/98
f 66/103/99 68/105/99 69/106/99
f 68/105/100 70/107/100 71/108/100
f 70/107/101 72/109/101 73/110/101
f 72/109/102 74/111/102 75/112/102
f 74/111/103 76/113/103 77/114/103
f 76/113/104 78/115/104 79/116/104
f 78/115/105 80/117/105 81/118/105
f 80/117/106 82/119/106 83/120/106
f 82/119/107 84/121/107 85/122/107
f 84/121/108 86/123/108 87/124/108
f 86/123/109 88/125/109 89/126/109
f 88/125/110 90/127/110 91/128/110
f 90/127/111 92/129/111 93/130/111
f 92/129/112 94/131/112 95/132/112
f 94/131/113 96/133/113 97/134/113
f 96/133/114 98/135/114 99/136/114
f 98/135/115 100/137/115 101/138/115
f 100/137/116 102/139/116 103/140/116
f 102/139/117 104/141/117 105/142/117
f 104/141/118 106/143/118 107/144/118
f 106/143/119 108/145/119 109/146/119
f 108/145/120 110/147/120 111/148/120
f 110/147/121 112/149/121 113/150/121
f 112/149/122 114/151/122 115/152/122
f 114/151/123 116/153/123 117/154/123
f 102/155/124 106/156/124 104/157/124
f 118/158/125 119/159/125 120/160/125
f 118/158/126 57/161/126 121/162/126
f 85/163/127 87/164/127 61/165/127
f 103/140/117 102/139/117 122/166/117
f 105/142/118 104/141/118 107/144/118
f 107/144/119 106/143/119 109/146/119
f 109/146/120 108/145/120 111/148/120
f 101/138/116 100/137/116 103/140/116
f 99/136/115 98/135/115 101/138/115
f 97/134/114 96/133/114 99/136/114
f 95/132/113 94/131/113 97/134/113
f 111/148/121 110/147/121 113/150/121
f 113/150/122 112/149/122 115/152/122
f 93/130/112 92/129/112 95/132/112
f 91/128/111 90/127/111 93/130/111
f 89/126/110 88/125/110 91/128/110
f 87/124/109 86/123/109 89/126/109
f 85/122/108 84/121/108 87/124/108
f 83/120/107 82/119/107 85/122/107
f 81/118/106 80/117/106 83/120/106
f 77/114/104 76/113/104 79/116/104
f 79/116/105 78/115/105 81/118/105
f 75/112/103 74/111/103 77/114/103
f 73/110/102 72/109/102 75/112/102
f 71/108/101 70/107/101 73/110/101
f 69/106/100 68/105/100 71/108/100
f 67/104/99 66/103/99 69/106/99
f 65/102/98 64/101/98 67/104/98
f 63/100/97 62/99/97 65/102/97
f 61/98/96 60/97/96 63/100/96
f 59/96/95 58/95/95 61/98/95
f 121/167/94 57/94/94 59/96/94
f 123/168/126 118/158/126 121/162/126
f 117/154/128 116/153/128 119/159/128
f 115/152/123 114/151/123 117/154/123
f 77/169/127 69/170/127 71/171/127
f 64/172/129 80/173/129 78/174/129
f 91/175/127 123/176/127 121/177/127
f 95/178/127 97/179/127 124/180/127
f 96/181/129 94/182/129 112/183/129
f 100/184/129 98/185/129 108/186/129
f 123/168/125 117/154/125 119/159/125
f 87/164/127 89/187/127 59/188/127
f 57/189/129 88/190/129 86/191/129
f 125/192/130 79/193/130 81/194/130
f 124/180/127 113/195/127 115/196/127
f 97/179/127 99/197/127 124/180/127
f 94/182/129 92/198/129 114/199/129
f 116/153/125 120/160/125 119/159/125
f 72/200/131 70/201/131 74/202/131
f 92/198/129 116/203/129 114/199/129
f 89/187/127 91/175/127 121/177/127
f 122/166/118 105/142/118 107/144/118
f 96/181/129 112/183/129 110/204/129
f 94/182/129 114/199/129 112/183/129
f 60/205/129 58/206/129 84/207/129
f 126/208/127 85/163/127 63/209/127
f 118/210/129 90/211/129 88/190/129
f 98/185/129 96/181/129 110/204/129
f 70/201/129 68/212/129 74/202/129
f 60/205/129 84/207/129 82/213/129
f 62/214/129 82/213/129 80/173/129
f 90/211/129 118/210/129 120/215/129
f 66/216/129 78/174/129 76/217/129
f 75/218/132 71/171/132 73/219/132
f 126/208/127 63/209/127 65/220/127
f 125/192/127 126/208/127 65/220/127
f 98/185/129 110/204/129 108/186/129
f 77/169/127 79/193/127 69/170/127
f 92/198/129 120/215/129 116/203/129
f 58/206/129 86/191/129 84/207/129
f 126/208/127 125/192/127 83/221/127
f 79/193/127 67/222/127 69/170/127
f 85/163/127 61/165/127 63/209/127
f 93/223/127 117/224/127 123/176/127
f 125/192/127 81/194/127 83/221/127
f 125/192/127 65/220/127 67/222/127
f 79/193/127 125/192/127 67/222/127
f 93/223/127 95/178/127 117/224/127
f 91/175/127 93/223/127 123/176/127
f 57/189/129 118/210/129 88/190/129
f 124/180/127 99/197/127 113/195/127
f 95/178/127 115/196/127 117/224/127
f 85/163/127 126/208/127 83/221/127
f 103/225/127 107/226/127 109/227/127
f 101/228/127 109/227/127 111/229/127
f 101/228/127 103/225/127 109/227/127
f 75/218/127 77/169/127 71/171/127
f 68/212/129 76/217/129 74/202/129
f 122/166/117 102/139/117 105/142/117
f 95/178/127 124/180/127 115/196/127
f 99/197/127 101/228/127 111/229/127
f 103/225/130 122/230/130 107/226/130
f 99/197/127 111/229/127 113/195/127
f 87/164/127 59/188/127 61/165/127
f 89/187/127 121/177/127 59/188/127
f 58/206/129 57/189/129 86/191/129
f 108/186/129 102/155/129 100/184/129
f 66/216/129 64/172/129 78/174/129
f 68/212/129 66/216/129 76/217/129
f 64/172/129 62/214/129 80/173/129
f 62/214/129 60/205/129 82/213/129
f 118/158/125 123/168/125 119/159/125
f 92/198/129 90/211/129 120/215/129
f 108/186/129 106/156/129 102/155/129
