# Blender v2.92.0 OBJ File: ''
# www.blender.org
mtllib estante.mtl
o Cubo.003
v 6.124733 6.156594 -5.317012
v 6.124733 0.000005 -31.054218
v 6.124733 0.000001 -5.317013
v 6.124733 6.156598 -31.054216
v 10.440775 0.000005 -31.054218
v 10.440775 0.830784 -6.147796
v 6.543193 5.325811 -6.147795
v 10.440775 5.325811 -6.147795
v 10.440775 6.156594 -5.317012
v 10.440775 0.000001 -5.317013
v 10.440775 6.156598 -31.054216
v 10.440775 6.156598 -31.054216
v 10.440775 0.000005 -31.054218
v 10.440775 6.156594 -5.317012
v 10.440775 0.000001 -5.317013
v 10.440775 0.830788 -30.223434
v 10.440775 5.325815 -30.223434
v 6.543193 5.325815 -30.223434
v 6.543193 0.830784 -6.147796
v 6.543193 0.830788 -30.223434
vt 1.779138 3.135905
vt -0.779138 -2.434809
vt 1.779138 -2.434810
vt 4.417011 4.083127
vt -3.417010 -3.382033
vt 4.417011 -3.382033
vt -1.310749 3.352539
vt 1.478520 -2.352539
vt 1.478521 3.352539
vt -0.779138 3.135905
vt -3.417011 4.083127
vt -1.310755 -2.352539
vt 3.162079 -3.524139
vt -2.278835 4.524139
vt -2.278834 -3.524139
vt 0.625000 0.250000
vt 0.375000 0.500000
vt 0.375000 0.250000
vt 2.482446 -1.600095
vt -1.482446 2.467207
vt -1.482446 -1.600095
vt 0.625000 0.750000
vt 0.375000 1.000000
vt 0.375000 0.750000
vt 0.125000 0.750000
vt 0.125000 0.500000
vt 1.214590 -1.313707
vt -0.019086 2.314258
vt -0.019086 -1.313707
vt 0.000000 0.000000
vt 0.000000 0.000000
vt 0.000000 0.000000
vt 0.375000 0.500000
vt -0.147437 2.313154
vt 0.000000 0.000000
vt 0.000000 0.000000
vt 0.000000 0.000000
vt -0.690000 -2.419671
vt 1.459966 4.498914
vt -0.690000 3.419672
vt -1.770297 -4.088384
vt 1.802674 5.405049
vt -1.770369 5.088379
vt -0.518131 -3.542240
vt 1.572705 4.821214
vt -0.518168 4.542236
vt -0.385682 -2.067717
vt 1.226200 4.016865
vt -0.385680 3.067720
vt -2.574462 9.789219
vt 2.691169 -8.789219
vt 2.691165 9.789219
vt -2.938153 -4.871606
vt 3.100123 5.871606
vt -2.938166 5.871606
vt 3.169596 -2.898875
vt -2.169596 3.060840
vt -2.169596 -2.898883
vt 1.957783 -1.201725
vt -0.957783 2.068838
vt -0.957783 -1.201726
vt 3.162076 4.524138
vt 0.625000 0.500000
vt 2.482446 2.467207
vt 0.625000 1.000000
vt 1.214590 2.314258
vt 0.000000 0.000000
vt 0.375000 0.750000
vt -0.147457 -1.314258
vt 0.000000 0.000000
vt 1.459966 -3.498914
vt 1.802684 -4.405049
vt 1.572705 -3.821214
vt 1.226199 -3.016866
vt -2.574458 -8.789219
vt 3.100123 -4.871606
vt 3.169596 3.060834
vt 1.957783 2.068838
vt 1.396846 2.641230
vt -1.229081 -1.641230
vt 1.396846 -1.641230
vt -1.229076 2.641230
vn 0.0000 -0.0000 1.0000
vn 0.0000 0.0000 -1.0000
vn 0.0000 -1.0000 -0.0000
vn -1.0000 0.0000 0.0000
vn 0.0000 0.0000 0.0000
vn 0.0000 1.0000 0.0000
vn 1.0000 -0.0000 0.0000
vn 0.3535 -0.9239 0.1464
vn -0.1464 -0.9239 0.3535
usemtl textura.002
s off
f 1/1/1 15/2/1 14/3/1
f 2/4/2 12/5/2 13/6/2
f 13/7/3 3/8/3 2/9/3
f 1/1/1 3/10/1 15/2/1
f 2/4/2 4/11/2 12/5/2
f 13/7/3 15/12/3 3/8/3
s 1
f 1/13/4 2/14/4 3/15/4
f 4/16/2 5/17/2 2/18/2
f 6/19/2 7/20/2 8/21/2
f 9/22/5 3/23/1 10/24/5
f 5/17/3 3/25/3 2/26/3
f 4/27/6 9/28/6 11/29/6
f 12/30/5 5/31/5 11/32/5
f 13/33/5 10/24/5 5/17/5
f 14/34/5 11/29/5 9/28/5
f 15/35/5 9/36/5 10/37/5
f 16/38/7 12/39/7 17/40/7
f 6/41/7 13/42/7 16/43/7
f 17/44/7 14/45/7 8/46/7
f 8/47/7 15/48/7 6/49/7
f 18/50/7 19/51/7 20/52/7
f 16/53/6 19/54/6 6/55/6
f 8/56/3 18/57/3 17/58/3
f 17/59/1 20/60/1 16/61/1
f 1/13/4 4/62/4 2/14/4
f 4/16/2 11/63/2 5/17/2
f 6/19/2 19/64/2 7/20/2
f 9/22/5 1/65/1 3/23/1
f 5/17/3 10/24/3 3/25/3
f 4/27/6 1/66/6 9/28/6
f 12/30/5 13/67/5 5/31/5
f 13/33/5 15/68/5 10/24/5
f 14/34/5 12/69/5 11/29/5
f 15/35/5 14/70/5 9/36/5
f 16/38/7 13/71/7 12/39/7
f 6/41/7 15/72/7 13/42/7
f 17/44/7 12/73/7 14/45/7
f 8/47/7 14/74/7 15/48/7
f 18/50/7 7/75/7 19/51/7
f 16/53/6 20/76/6 19/54/6
f 8/56/3 7/77/3 18/57/3
f 17/59/1 18/78/1 20/60/1
f 1/79/6 12/80/8 4/81/6
f 1/79/6 14/82/9 12/80/8
