# Blender v2.92.0 OBJ File: ''
# www.blender.org
mtllib lixeira.mtl
o Plane
v 0.993834 -0.003115 -0.932940
v -1.006166 -0.003115 -0.932940
v 0.993834 -0.003115 1.067060
v -1.006166 -0.003115 1.067060
v 0.993834 2.938473 -0.932940
v -1.006166 2.938473 -0.932940
v 0.993834 2.938473 1.067060
v -1.006166 2.938473 1.067060
v 0.993834 0.020722 -0.932940
v -1.006166 0.020722 -0.932940
v 0.993834 0.020722 1.067060
v -1.006166 0.020722 1.067060
vt 0.160048 0.839952
vt 0.839952 0.160048
vt 0.160048 0.160048
vt 0.160048 1.000000
vt 0.839952 0.008103
vt 0.839952 1.000000
vt 0.160048 0.000000
vt 0.839952 1.000000
vt 0.839952 0.000000
vt 0.160048 0.000000
vt 0.839952 0.000000
vt 0.839952 0.000000
vt 0.160048 1.000000
vt 0.160048 1.000000
vt 0.160048 0.000000
vt 0.839952 0.160048
vt 0.160048 0.839952
vt 0.160048 0.160048
vt 0.839952 1.000000
vt 0.160048 0.008103
vt 0.160048 0.008103
vt 0.839952 0.008103
vt 0.839952 0.839952
vt 0.160048 0.008103
vt 0.839952 0.839952
vt 0.839952 0.008103
vn 0.0000 -1.0000 0.0000
vn 0.0000 0.0000 -1.0000
vn 1.0000 0.0000 0.0000
vn 0.0000 0.0000 1.0000
vn -1.0000 0.0000 0.0000
vn 0.0000 1.0000 0.0000
usemtl textura
s off
f 3/1/1 2/2/1 1/3/1
f 7/4/2 12/5/2 8/6/2
f 1/7/3 7/8/3 3/9/3
f 3/10/4 8/6/4 4/11/4
f 2/12/2 5/13/2 1/7/2
f 4/11/5 6/14/5 2/15/5
f 10/16/6 11/17/6 9/18/6
f 6/19/4 9/20/4 5/13/4
f 8/6/3 10/21/3 6/14/3
f 5/13/5 11/22/5 7/8/5
f 3/1/1 4/23/1 2/2/1
f 7/4/2 11/24/2 12/5/2
f 1/7/3 5/13/3 7/8/3
f 3/10/4 7/4/4 8/6/4
f 2/12/2 6/19/2 5/13/2
f 4/11/5 8/6/5 6/14/5
f 10/16/6 12/25/6 11/17/6
f 6/19/4 10/26/4 9/20/4
f 8/6/3 12/5/3 10/21/3
f 5/13/5 9/20/5 11/22/5
