# Blender v2.92.0 OBJ File: ''
# www.blender.org
mtllib luminaria.2obj.mtl
o Cubo_Cubo.002
v -0.367115 0.055992 0.267911
v -0.367115 0.231663 0.267911
v -0.367115 0.055992 -0.250706
v -0.367115 0.231663 -0.250706
v 0.355178 0.055992 0.267911
v 0.355178 0.231663 0.267911
v 0.355178 0.055992 -0.250706
v 0.355178 0.231663 -0.250706
v -0.321031 0.046084 -0.306698
v -0.321031 0.046084 0.323903
v -0.321031 0.241571 0.323903
v -0.321031 0.241571 -0.306698
v 0.309094 0.241571 -0.306698
v 0.309094 0.046084 -0.306698
v 0.309094 0.046084 0.323903
v 0.309094 0.241571 0.323903
v -0.367115 0.000000 0.323903
v -0.367115 0.287656 0.323903
v -0.367115 0.287656 -0.306698
v -0.367115 0.000000 -0.306698
v 0.355178 0.000000 -0.306698
v 0.355178 0.287656 -0.306698
v 0.355178 0.287656 0.323903
v 0.355178 0.000000 0.323903
v -0.321031 0.241571 -0.266554
v -0.321031 0.046084 -0.266554
v 0.309094 0.046084 -0.266554
v 0.309094 0.241571 -0.266554
v -0.304677 0.055992 -0.250706
v -0.304677 0.055992 0.267911
v -0.304677 0.231663 0.267911
v -0.304677 0.231663 -0.250706
v -0.321031 0.046084 0.285202
v -0.321031 0.241571 0.285202
v 0.309094 0.241571 0.285202
v 0.309094 0.046084 0.285202
v 0.306481 0.231663 -0.250706
v 0.306481 0.055992 -0.250706
v 0.306481 0.055992 0.267911
v 0.306481 0.231663 0.267911
vt 0.423663 0.227802
vt 0.576337 0.227802
vt 0.576337 0.227802
vt 0.415052 0.484049
vt 0.584948 0.484049
vt 0.584948 0.484049
vt 0.423663 0.727802
vt 0.576337 0.727802
vt 0.576337 0.727802
vt 0.415052 0.984049
vt 0.584948 0.984049
vt 0.584948 0.984049
vt 0.375000 0.500000
vt 0.125000 0.750000
vt 0.125000 0.500000
vt 0.875000 0.500000
vt 0.625000 0.750000
vt 0.625000 0.500000
vt 0.375000 0.000000
vt 0.423663 0.022198
vt 0.625000 0.000000
vt 0.576337 0.022198
vt 0.625000 0.250000
vt 0.375000 0.250000
vt 0.423663 0.522198
vt 0.576337 0.522198
vt 0.375000 0.750000
vt 0.625000 1.000000
vt 0.375000 1.000000
vt 0.584948 0.265951
vt 0.415052 0.265951
vt 0.584948 0.765951
vt 0.415052 0.765951
vt 0.584948 0.265951
vt 0.415052 0.484049
vt 0.415052 0.265951
vt 0.576337 0.022198
vt 0.423663 0.227802
vt 0.423663 0.022198
vt 0.584948 0.765951
vt 0.415052 0.984049
vt 0.415052 0.765951
vt 0.576337 0.522198
vt 0.423663 0.727802
vt 0.423663 0.522198
vt 0.875000 0.750000
vn 0.0000 0.0000 1.0000
vn -1.0000 0.0000 0.0000
vn 0.0000 0.0000 -1.0000
vn 1.0000 0.0000 0.0000
vn 0.0000 -1.0000 0.0000
vn 0.0000 1.0000 0.0000
usemtl None
s off
f 3/1/1 32/2/1 4/3/1
f 14/4/2 28/5/2 13/6/2
f 5/7/3 40/8/3 6/9/3
f 10/10/4 34/11/4 11/12/4
f 21/13/5 17/14/5 20/15/5
f 19/16/6 23/17/6 22/18/6
f 3/1/2 17/19/2 1/20/2
f 1/20/2 18/21/2 2/22/2
f 2/22/2 19/23/2 4/3/2
f 4/3/2 20/24/2 3/1/2
f 7/25/4 22/18/4 8/26/4
f 5/7/4 21/13/4 7/25/4
f 8/26/4 23/17/4 6/9/4
f 6/9/4 24/27/4 5/7/4
f 10/10/1 18/28/1 17/29/1
f 12/30/3 20/24/3 19/23/3
f 14/4/3 20/24/3 9/31/3
f 12/30/3 22/18/3 13/6/3
f 14/4/3 22/18/3 21/13/3
f 16/32/1 24/27/1 23/17/1
f 10/10/1 24/27/1 15/33/1
f 16/32/1 18/28/1 11/12/1
f 25/34/3 27/35/3 26/36/3
f 9/31/6 27/35/6 14/4/6
f 13/6/5 25/34/5 12/30/5
f 12/30/4 26/36/4 9/31/4
f 31/37/2 29/38/2 30/39/2
f 2/22/3 30/39/3 1/20/3
f 4/3/5 31/37/5 2/22/5
f 1/20/6 29/38/6 3/1/6
f 35/40/1 33/41/1 36/42/1
f 11/12/5 35/40/5 16/32/5
f 16/32/2 36/42/2 15/33/2
f 15/33/6 33/41/6 10/10/6
f 37/43/4 39/44/4 38/45/4
f 7/25/6 39/44/6 5/7/6
f 6/9/5 37/43/5 8/26/5
f 8/26/1 38/45/1 7/25/1
f 3/1/1 29/38/1 32/2/1
f 14/4/2 27/35/2 28/5/2
f 5/7/3 39/44/3 40/8/3
f 10/10/4 33/41/4 34/11/4
f 21/13/5 24/27/5 17/14/5
f 19/16/6 18/46/6 23/17/6
f 3/1/2 20/24/2 17/19/2
f 1/20/2 17/19/2 18/21/2
f 2/22/2 18/21/2 19/23/2
f 4/3/2 19/23/2 20/24/2
f 7/25/4 21/13/4 22/18/4
f 5/7/4 24/27/4 21/13/4
f 8/26/4 22/18/4 23/17/4
f 6/9/4 23/17/4 24/27/4
f 10/10/1 11/12/1 18/28/1
f 12/30/3 9/31/3 20/24/3
f 14/4/3 21/13/3 20/24/3
f 12/30/3 19/23/3 22/18/3
f 14/4/3 13/6/3 22/18/3
f 16/32/1 15/33/1 24/27/1
f 10/10/1 17/29/1 24/27/1
f 16/32/1 23/17/1 18/28/1
f 25/34/3 28/5/3 27/35/3
f 9/31/6 26/36/6 27/35/6
f 13/6/5 28/5/5 25/34/5
f 12/30/4 25/34/4 26/36/4
f 31/37/2 32/2/2 29/38/2
f 2/22/3 31/37/3 30/39/3
f 4/3/5 32/2/5 31/37/5
f 1/20/6 30/39/6 29/38/6
f 35/40/1 34/11/1 33/41/1
f 11/12/5 34/11/5 35/40/5
f 16/32/2 35/40/2 36/42/2
f 15/33/6 36/42/6 33/41/6
f 37/43/4 40/8/4 39/44/4
f 7/25/6 38/45/6 39/44/6
f 6/9/5 40/8/5 37/43/5
f 8/26/1 37/43/1 38/45/1
