# Blender v2.92.0 OBJ File: ''
# www.blender.org
mtllib mesa.mtl
o Cubo
v 7.131849 6.844224 0.253951
v 7.131849 5.999074 1.731077
v 7.131849 5.999073 0.253951
v 7.131849 6.844224 1.731077
v 2.704906 5.999074 1.731077
v 2.704906 6.844221 -17.471563
v 2.704906 5.999070 -18.948690
v 2.704906 5.999070 -17.471563
v 2.704906 6.844221 -18.948690
v 7.131849 5.999070 -18.948690
v 2.915859 5.999070 -17.789555
v 6.920897 -0.201585 -17.789553
v 6.920897 5.999070 -17.789555
v 7.131849 6.844221 -17.471563
v 2.704906 6.844224 0.253951
v 2.704906 6.844224 1.731077
v 2.704906 6.844224 -1.223175
v 7.131849 6.844224 -1.223176
v 2.704906 6.844223 -2.700301
v 7.131849 6.844223 -2.700301
v 2.704906 6.844223 -4.177427
v 7.131849 6.844223 -4.177427
v 2.704906 6.844223 -5.654553
v 7.131849 6.844223 -5.654553
v 2.704906 6.844223 -7.131680
v 7.131849 6.844223 -7.131680
v 2.704906 6.844223 -8.608806
v 7.131849 6.844223 -8.608806
v 2.704906 6.844223 -10.085932
v 7.131849 6.844222 -11.563058
v 2.704906 6.844222 -11.563058
v 2.704906 6.844222 -13.040184
v 7.131849 6.844222 -13.040184
v 2.704906 6.844222 -14.517310
v 7.131849 6.844222 -14.517310
v 2.704906 6.844222 -15.994435
v 7.131849 6.844222 -15.994437
v 6.920897 -0.201585 -18.630695
v 6.920897 5.999070 -18.630697
v 2.704906 5.999073 0.253951
v 7.131849 5.999073 -1.223175
v 2.704906 5.999073 -1.223176
v 7.131849 5.999073 -2.700301
v 2.704906 5.999073 -2.700301
v 7.131849 5.999073 -4.177427
v 2.704906 5.999073 -4.177427
v 7.131849 5.999072 -5.654553
v 2.704906 5.999072 -5.654553
v 7.131849 5.999072 -7.131680
v 2.704906 5.999072 -7.131680
v 7.131849 5.999072 -8.608806
v 2.704906 5.999072 -8.608806
v 7.131849 5.999072 -10.085932
v 2.704906 5.999071 -11.563058
v 7.131849 5.999071 -11.563058
v 7.131849 5.999071 -13.040184
v 2.704906 5.999071 -13.040184
v 7.131849 5.999071 -14.517310
v 2.704906 5.999071 -14.517310
v 7.131849 5.999071 -15.994435
v 2.704906 5.999071 -15.994437
v 7.131849 5.999070 -17.471563
v 2.704906 5.999072 -10.085932
v 7.131849 6.844221 -18.948690
v 7.131849 6.844223 -10.085932
v 6.920897 5.999073 1.413086
v 2.915859 5.999073 1.413086
v 2.915859 5.999073 0.571942
v 2.915859 5.999070 -18.630697
v 6.920897 5.999073 0.571942
v 2.915859 -0.201585 -17.789553
v 2.915859 -0.201582 1.413087
v 6.920897 -0.201582 0.571943
v 6.920897 -0.201582 1.413087
v 2.915859 -0.201585 -18.630695
v 2.915859 -0.201582 0.571943
vt 0.625000 0.232143
vt 0.375000 0.250000
vt 0.375000 0.232143
vt 0.625000 0.250000
vt 0.375000 0.500000
vt 0.625000 0.732143
vt 0.375000 0.750000
vt 0.375000 0.732143
vt 0.625000 0.750000
vt 0.375000 1.000000
vt 0.363087 0.735987
vt 0.136913 0.735987
vt 0.136913 0.735987
vt 0.875000 0.732143
vt 0.875000 0.500000
vt 0.625000 0.517857
vt 0.625000 0.500000
vt 0.875000 0.517857
vt 0.625000 0.535714
vt 0.875000 0.535714
vt 0.625000 0.553571
vt 0.875000 0.553571
vt 0.625000 0.571429
vt 0.875000 0.571429
vt 0.625000 0.589286
vt 0.875000 0.589286
vt 0.625000 0.607143
vt 0.875000 0.607143
vt 0.625000 0.625000
vt 0.875000 0.625000
vt 0.625000 0.642857
vt 0.875000 0.660714
vt 0.625000 0.660714
vt 0.625000 0.678571
vt 0.875000 0.678571
vt 0.625000 0.696429
vt 0.875000 0.696429
vt 0.625000 0.714286
vt 0.875000 0.714286
vt 0.136913 0.746156
vt 0.136913 0.746156
vt 0.375000 0.517857
vt 0.125000 0.535714
vt 0.125000 0.517857
vt 0.375000 0.535714
vt 0.125000 0.553571
vt 0.375000 0.553571
vt 0.125000 0.571429
vt 0.375000 0.571429
vt 0.125000 0.589286
vt 0.375000 0.589286
vt 0.125000 0.607143
vt 0.375000 0.607143
vt 0.125000 0.625000
vt 0.375000 0.625000
vt 0.125000 0.642857
vt 0.375000 0.660714
vt 0.125000 0.660714
vt 0.125000 0.678571
vt 0.375000 0.678571
vt 0.125000 0.696429
vt 0.375000 0.696428
vt 0.125000 0.714286
vt 0.375000 0.714286
vt 0.125000 0.732143
vt 0.375000 0.642857
vt 0.625000 0.000000
vt 0.375000 0.017857
vt 0.375000 0.000000
vt 0.625000 0.035714
vt 0.375000 0.035714
vt 0.625000 0.053571
vt 0.375000 0.053571
vt 0.625000 0.071429
vt 0.375000 0.071429
vt 0.375000 0.089286
vt 0.625000 0.089286
vt 0.375000 0.107143
vt 0.625000 0.107143
vt 0.375000 0.125000
vt 0.625000 0.125000
vt 0.375000 0.142857
vt 0.625000 0.142857
vt 0.375000 0.160714
vt 0.625000 0.160714
vt 0.375000 0.178571
vt 0.625000 0.196429
vt 0.375000 0.196429
vt 0.625000 0.214286
vt 0.375000 0.214286
vt 0.136913 0.503844
vt 0.363087 0.503844
vt 0.363087 0.514013
vt 0.363087 0.746156
vt 0.125000 0.750000
vt 0.136913 0.514013
vt 0.125000 0.500000
vt 0.363087 0.735987
vt 0.363087 0.503844
vt 0.136913 0.514013
vt 0.136913 0.503844
vt 0.363087 0.746156
vt 0.363087 0.514013
vt 0.625000 1.000000
vt 0.875000 0.750000
vt 0.875000 0.642857
vt 0.625000 0.017857
vt 0.625000 0.178571
vn 1.0000 -0.0000 0.0000
vn 0.0000 0.0000 1.0000
vn -1.0000 0.0000 0.0000
vn 0.0000 0.0000 -1.0000
vn 0.0000 1.0000 0.0000
vn -0.0000 -1.0000 0.0000
usemtl None
s 1
f 1/1/1 2/2/1 3/3/1
f 4/4/2 5/5/2 2/2/2
f 6/6/3 7/7/3 8/8/3
f 9/9/4 10/10/4 7/7/4
f 11/11/2 12/12/2 13/13/2
f 14/14/5 9/9/5 6/6/5
f 4/15/5 15/16/5 16/17/5
f 1/18/5 17/19/5 15/16/5
f 18/20/5 19/21/5 17/19/5
f 20/22/5 21/23/5 19/21/5
f 22/24/5 23/25/5 21/23/5
f 24/26/5 25/27/5 23/25/5
f 26/28/5 27/29/5 25/27/5
f 28/30/5 29/31/5 27/29/5
f 29/31/5 30/32/5 31/33/5
f 30/32/5 32/34/5 31/33/5
f 33/35/5 34/36/5 32/34/5
f 35/37/5 36/38/5 34/36/5
f 37/39/5 6/6/5 36/38/5
f 13/13/1 38/40/1 39/41/1
f 40/42/6 41/43/6 3/44/6
f 42/45/6 43/46/6 41/43/6
f 44/47/6 45/48/6 43/46/6
f 46/49/6 47/50/6 45/48/6
f 48/51/6 49/52/6 47/50/6
f 50/53/6 51/54/6 49/52/6
f 52/55/6 53/56/6 51/54/6
f 53/56/6 54/57/6 55/58/6
f 54/57/6 56/59/6 55/58/6
f 57/60/6 58/61/6 56/59/6
f 59/62/6 60/63/6 58/61/6
f 61/64/6 62/65/6 60/63/6
f 16/17/3 40/42/3 5/5/3
f 40/42/3 17/19/3 42/45/3
f 42/45/3 19/21/3 44/47/3
f 44/47/3 21/23/3 46/49/3
f 21/23/3 48/51/3 46/49/3
f 23/25/3 50/53/3 48/51/3
f 25/27/3 52/55/3 50/53/3
f 27/29/3 63/66/3 52/55/3
f 29/31/3 54/57/3 63/66/3
f 31/33/3 57/60/3 54/57/3
f 57/60/3 34/36/3 59/62/3
f 59/62/3 36/38/3 61/64/3
f 61/64/3 6/6/3 8/8/3
f 64/67/1 62/68/1 10/69/1
f 62/68/1 37/70/1 60/71/1
f 60/71/1 35/72/1 58/73/1
f 58/73/1 33/74/1 56/75/1
f 33/74/1 55/76/1 56/75/1
f 30/77/1 53/78/1 55/76/1
f 65/79/1 51/80/1 53/78/1
f 28/81/1 49/82/1 51/80/1
f 26/83/1 47/84/1 49/82/1
f 24/85/1 45/86/1 47/84/1
f 45/86/1 20/87/1 43/88/1
f 43/88/1 18/89/1 41/90/1
f 41/90/1 1/1/1 3/3/1
f 39/41/6 62/65/6 13/13/6
f 66/91/6 5/5/6 67/92/6
f 67/92/6 40/42/6 68/93/6
f 69/94/6 10/95/6 39/41/6
f 70/96/6 2/97/6 66/91/6
f 11/11/6 7/7/6 69/94/6
f 68/93/6 3/44/6 70/96/6
f 13/13/6 8/8/6 11/11/6
f 71/98/6 38/40/6 12/12/6
f 72/99/6 73/100/6 74/101/6
f 69/94/3 71/98/3 11/11/3
f 39/41/4 75/102/4 69/94/4
f 67/92/2 74/101/2 66/91/2
f 70/96/4 76/103/4 68/93/4
f 66/91/1 73/100/1 70/96/1
f 68/93/3 72/99/3 67/92/3
f 1/1/1 4/4/1 2/2/1
f 4/4/2 16/17/2 5/5/2
f 6/6/3 9/9/3 7/7/3
f 9/9/4 64/104/4 10/10/4
f 11/11/2 71/98/2 12/12/2
f 14/14/5 64/105/5 9/9/5
f 4/15/5 1/18/5 15/16/5
f 1/18/5 18/20/5 17/19/5
f 18/20/5 20/22/5 19/21/5
f 20/22/5 22/24/5 21/23/5
f 22/24/5 24/26/5 23/25/5
f 24/26/5 26/28/5 25/27/5
f 26/28/5 28/30/5 27/29/5
f 28/30/5 65/106/5 29/31/5
f 29/31/5 65/106/5 30/32/5
f 30/32/5 33/35/5 32/34/5
f 33/35/5 35/37/5 34/36/5
f 35/37/5 37/39/5 36/38/5
f 37/39/5 14/14/5 6/6/5
f 13/13/1 12/12/1 38/40/1
f 40/42/6 42/45/6 41/43/6
f 42/45/6 44/47/6 43/46/6
f 44/47/6 46/49/6 45/48/6
f 46/49/6 48/51/6 47/50/6
f 48/51/6 50/53/6 49/52/6
f 50/53/6 52/55/6 51/54/6
f 52/55/6 63/66/6 53/56/6
f 53/56/6 63/66/6 54/57/6
f 54/57/6 57/60/6 56/59/6
f 57/60/6 59/62/6 58/61/6
f 59/62/6 61/64/6 60/63/6
f 61/64/6 8/8/6 62/65/6
f 16/17/3 15/16/3 40/42/3
f 40/42/3 15/16/3 17/19/3
f 42/45/3 17/19/3 19/21/3
f 44/47/3 19/21/3 21/23/3
f 21/23/3 23/25/3 48/51/3
f 23/25/3 25/27/3 50/53/3
f 25/27/3 27/29/3 52/55/3
f 27/29/3 29/31/3 63/66/3
f 29/31/3 31/33/3 54/57/3
f 31/33/3 32/34/3 57/60/3
f 57/60/3 32/34/3 34/36/3
f 59/62/3 34/36/3 36/38/3
f 61/64/3 36/38/3 6/6/3
f 64/67/1 14/107/1 62/68/1
f 62/68/1 14/107/1 37/70/1
f 60/71/1 37/70/1 35/72/1
f 58/73/1 35/72/1 33/74/1
f 33/74/1 30/77/1 55/76/1
f 30/77/1 65/79/1 53/78/1
f 65/79/1 28/81/1 51/80/1
f 28/81/1 26/83/1 49/82/1
f 26/83/1 24/85/1 47/84/1
f 24/85/1 22/108/1 45/86/1
f 45/86/1 22/108/1 20/87/1
f 43/88/1 20/87/1 18/89/1
f 41/90/1 18/89/1 1/1/1
f 39/41/6 10/95/6 62/65/6
f 66/91/6 2/97/6 5/5/6
f 67/92/6 5/5/6 40/42/6
f 69/94/6 7/7/6 10/95/6
f 70/96/6 3/44/6 2/97/6
f 11/11/6 8/8/6 7/7/6
f 68/93/6 40/42/6 3/44/6
f 13/13/6 62/65/6 8/8/6
f 71/98/6 75/102/6 38/40/6
f 72/99/6 76/103/6 73/100/6
f 69/94/3 75/102/3 71/98/3
f 39/41/4 38/40/4 75/102/4
f 67/92/2 72/99/2 74/101/2
f 70/96/4 73/100/4 76/103/4
f 66/91/1 74/101/1 73/100/1
f 68/93/3 76/103/3 72/99/3