# Blender v2.93.3 OBJ File: 'porta.blend'
# www.blender.org
mtllib portaFechada.mtl
o Cubo
v 1.001865 -0.018955 0.701364
v 1.001865 4.590009 0.701364
v -1.182735 -0.018955 -0.478273
v -1.182735 4.590009 -0.478273
v 1.135966 -0.018955 0.453019
v 1.135966 4.590009 0.453019
v -1.048634 -0.018955 -0.726619
v -1.048634 4.590009 -0.726619
v 1.095707 2.589083 0.286423
v 1.093876 2.570542 0.285386
v 1.088442 2.552712 0.282611
v 1.079612 2.536281 0.278206
v 1.067727 2.521878 0.272339
v 1.053243 2.510059 0.265235
v 1.036717 2.501276 0.257169
v 1.018783 2.495868 0.248450
v 1.000132 2.494041 0.239412
v 0.981479 2.495868 0.230403
v 0.963542 2.501276 0.221770
v 0.947009 2.510059 0.213845
v 0.932517 2.521878 0.206930
v 0.920622 2.536281 0.201294
v 0.911781 2.552712 0.197151
v 0.906334 2.570542 0.194662
v 0.904491 2.589083 0.193922
v 0.906321 2.607625 0.194959
v 0.911756 2.625454 0.197733
v 0.920585 2.641885 0.202139
v 0.932471 2.656287 0.208006
v 0.946955 2.668107 0.215109
v 0.963481 2.676890 0.223175
v 0.981415 2.682298 0.231895
v 1.000066 2.684124 0.240933
v 1.018719 2.682298 0.249941
v 1.036657 2.676890 0.258574
v 1.053189 2.668107 0.266500
v 1.067681 2.656287 0.273414
v 1.079576 2.641885 0.279051
v 1.088417 2.625454 0.283193
v 1.093864 2.607625 0.285682
v 0.991940 2.587559 0.429885
vt 0.625000 0.000000
vt 0.375000 0.250000
vt 0.375000 0.000000
vt 0.625000 0.250000
vt 0.375000 0.500000
vt 0.625000 0.500000
vt 0.375000 0.750000
vt 0.625000 0.750000
vt 0.375000 1.000000
vt 0.125000 0.750000
vt 0.125000 0.500000
vt 0.875000 0.500000
vt 0.250000 0.490000
vt 0.250000 0.250000
vt 0.296822 0.485388
vt 0.341844 0.471731
vt 0.383337 0.449553
vt 0.419706 0.419706
vt 0.449553 0.383337
vt 0.471731 0.341844
vt 0.485388 0.296822
vt 0.490000 0.250000
vt 0.485388 0.203178
vt 0.471731 0.158156
vt 0.449553 0.116663
vt 0.419706 0.080294
vt 0.383337 0.050447
vt 0.341844 0.028269
vt 0.296822 0.014612
vt 0.250000 0.010000
vt 0.203178 0.014612
vt 0.158156 0.028269
vt 0.116663 0.050447
vt 0.080294 0.080294
vt 0.050447 0.116663
vt 0.028269 0.158156
vt 0.014612 0.203178
vt 0.010000 0.250000
vt 0.014612 0.296822
vt 0.028269 0.341844
vt 0.050447 0.383337
vt 0.080294 0.419706
vt 0.116663 0.449553
vt 0.158156 0.471731
vt 0.616663 0.449553
vt 0.658156 0.471731
vt 0.841844 0.471731
vt 0.203178 0.485388
vt 0.625000 1.000000
vt 0.875000 0.750000
vt 0.703178 0.485388
vt 0.750000 0.490000
vt 0.796822 0.485388
vt 0.883337 0.449553
vt 0.919706 0.419706
vt 0.580294 0.419706
vt 0.949553 0.383337
vt 0.550447 0.383337
vt 0.971731 0.341844
vt 0.528269 0.341844
vt 0.985388 0.296822
vt 0.514612 0.296822
vt 0.990000 0.250000
vt 0.510000 0.250000
vt 0.985388 0.203178
vt 0.514612 0.203178
vt 0.971731 0.158156
vt 0.528269 0.158156
vt 0.949553 0.116663
vt 0.550447 0.116663
vt 0.919706 0.080294
vt 0.580294 0.080294
vt 0.883337 0.050447
vt 0.616663 0.050447
vt 0.841844 0.028269
vt 0.658156 0.028269
vt 0.796822 0.014612
vt 0.703178 0.014612
vt 0.750000 0.010000
vn -0.4751 0.0000 0.8799
vn -0.8799 0.0000 -0.4751
vn 0.4751 0.0000 -0.8799
vn 0.8799 0.0000 0.4751
vn 0.0000 -1.0000 0.0000
vn 0.0000 1.0000 0.0000
vn 0.8057 -0.1121 0.5816
vn 0.7562 -0.3194 0.5711
vn 0.6626 -0.5045 0.5536
vn 0.5345 -0.6574 0.5312
vn 0.3825 -0.7729 0.5062
vn 0.2169 -0.8496 0.4807
vn 0.0463 -0.8888 0.4560
vn -0.1225 -0.8930 0.4332
vn -0.2840 -0.8654 0.4127
vn -0.4342 -0.8096 0.3949
vn -0.5694 -0.7290 0.3799
vn -0.6868 -0.6270 0.3678
vn -0.7838 -0.5071 0.3583
vn -0.8585 -0.3733 0.3516
vn -0.9092 -0.2293 0.3475
vn -0.9349 -0.0791 0.3460
vn -0.9350 0.0729 0.3470
vn -0.9097 0.2227 0.3506
vn -0.8595 0.3662 0.3566
vn -0.7856 0.4995 0.3653
vn -0.6895 0.6187 0.3765
vn -0.5733 0.7204 0.3903
vn -0.4393 0.8010 0.4067
vn -0.2901 0.8572 0.4256
vn -0.1291 0.8852 0.4469
vn 0.0396 0.8817 0.4701
vn 0.2108 0.8431 0.4947
vn 0.3774 0.7666 0.5194
vn 0.5308 0.6508 0.5428
vn 0.6604 0.4972 0.5627
vn 0.4355 0.0074 -0.9002
vn 0.7551 0.3112 0.5770
vn 0.8054 0.1034 0.5836
vn 0.4354 0.0074 -0.9002
usemtl None
s off
f 2/1/1 3/2/1 1/3/1
f 4/4/2 7/5/2 3/2/2
f 8/6/3 5/7/3 7/5/3
f 6/8/4 1/9/4 5/7/4
f 7/5/5 1/10/5 3/11/5
f 4/12/6 6/8/6 8/6/6
f 9/13/7 41/14/7 10/15/7
f 10/15/8 41/14/8 11/16/8
f 11/16/9 41/14/9 12/17/9
f 12/17/10 41/14/10 13/18/10
f 13/18/11 41/14/11 14/19/11
f 14/19/12 41/14/12 15/20/12
f 15/20/13 41/14/13 16/21/13
f 16/21/14 41/14/14 17/22/14
f 17/22/15 41/14/15 18/23/15
f 18/23/16 41/14/16 19/24/16
f 19/24/17 41/14/17 20/25/17
f 20/25/18 41/14/18 21/26/18
f 21/26/19 41/14/19 22/27/19
f 22/27/20 41/14/20 23/28/20
f 23/28/21 41/14/21 24/29/21
f 24/29/22 41/14/22 25/30/22
f 25/30/23 41/14/23 26/31/23
f 26/31/24 41/14/24 27/32/24
f 27/32/25 41/14/25 28/33/25
f 28/33/26 41/14/26 29/34/26
f 29/34/27 41/14/27 30/35/27
f 30/35/28 41/14/28 31/36/28
f 31/36/29 41/14/29 32/37/29
f 32/37/30 41/14/30 33/38/30
f 33/38/31 41/14/31 34/39/31
f 34/39/32 41/14/32 35/40/32
f 35/40/33 41/14/33 36/41/33
f 36/41/34 41/14/34 37/42/34
f 37/42/35 41/14/35 38/43/35
f 38/43/36 41/14/36 39/44/36
f 38/45/37 39/46/37 11/47/37
f 39/44/38 41/14/38 40/48/38
f 40/48/39 41/14/39 9/13/39
f 2/1/1 4/4/1 3/2/1
f 4/4/2 8/6/2 7/5/2
f 8/6/3 6/8/3 5/7/3
f 6/8/4 2/49/4 1/9/4
f 7/5/5 5/7/5 1/10/5
f 4/12/6 2/50/6 6/8/6
f 40/51/40 9/52/40 10/53/40
f 10/53/37 11/47/37 39/46/37
f 11/47/37 12/54/37 38/45/37
f 10/53/37 39/46/37 40/51/37
f 12/54/37 13/55/37 37/56/37
f 13/55/37 14/57/37 36/58/37
f 14/57/37 15/59/37 35/60/37
f 15/59/37 16/61/37 34/62/37
f 14/57/37 35/60/37 36/58/37
f 16/61/37 17/63/37 33/64/37
f 17/63/37 18/65/37 32/66/37
f 18/65/37 19/67/37 31/68/37
f 19/67/37 20/69/37 30/70/37
f 18/65/37 31/68/37 32/66/37
f 20/69/37 21/71/37 29/72/37
f 21/71/37 22/73/37 28/74/37
f 22/73/37 23/75/37 27/76/37
f 23/75/37 24/77/37 26/78/37
f 22/73/37 27/76/37 28/74/37
f 24/77/37 25/79/37 26/78/37
f 26/78/37 27/76/37 23/75/37
f 28/74/37 29/72/37 21/71/37
f 29/72/37 30/70/37 20/69/37
f 30/70/37 31/68/37 19/67/37
f 32/66/37 33/64/37 17/63/37
f 33/64/37 34/62/37 16/61/37
f 34/62/37 35/60/37 15/59/37
f 36/58/37 37/56/37 13/55/37
f 37/56/37 38/45/37 12/54/37