# Blender v2.93.3 OBJ File: 'porta.blend'
# www.blender.org
mtllib porta2.mtl
o Cubo
v -0.141120 -0.018955 1.214796
v -0.141120 4.590009 1.214796
v -0.141120 -0.018955 -1.267948
v -0.141120 4.590009 -1.267948
v 0.141120 -0.018955 1.214796
v 0.141120 4.590009 1.214796
v 0.141120 -0.018955 -1.267948
v 0.141120 4.590009 -1.267948
v 0.268581 2.589083 1.100217
v 0.268624 2.570542 1.098113
v 0.268483 2.552712 1.092013
v 0.268164 2.536281 1.082150
v 0.267680 2.521878 1.068905
v 0.267048 2.510059 1.052785
v 0.266293 2.501276 1.034411
v 0.265445 2.495868 1.014488
v 0.264535 2.494041 0.993782
v 0.263599 2.495868 0.973089
v 0.262673 2.501276 0.953204
v 0.261792 2.510059 0.934891
v 0.260990 2.521878 0.918854
v 0.260298 2.536281 0.905709
v 0.259742 2.552712 0.895961
v 0.259345 2.570542 0.889986
v 0.259120 2.589083 0.888012
v 0.259078 2.607625 0.890116
v 0.259219 2.625454 0.896216
v 0.259537 2.641885 0.906078
v 0.260022 2.656287 0.919324
v 0.260654 2.668107 0.935444
v 0.261408 2.676890 0.953818
v 0.262256 2.682298 0.973741
v 0.263166 2.684124 0.994447
v 0.264102 2.682298 1.015140
v 0.265029 2.676890 1.035025
v 0.265910 2.668107 1.053338
v 0.266712 2.656287 1.069375
v 0.267404 2.641885 1.082520
v 0.267959 2.625454 1.092267
v 0.268357 2.607625 1.098243
v 0.093044 2.587559 1.077075
vt 0.625000 0.000000
vt 0.375000 0.250000
vt 0.375000 0.000000
vt 0.625000 0.250000
vt 0.375000 0.500000
vt 0.625000 0.500000
vt 0.375000 0.750000
vt 0.625000 0.750000
vt 0.375000 1.000000
vt 0.125000 0.750000
vt 0.125000 0.500000
vt 0.875000 0.500000
vt 0.250000 0.490000
vt 0.250000 0.250000
vt 0.296822 0.485388
vt 0.341844 0.471731
vt 0.383337 0.449553
vt 0.419706 0.419706
vt 0.449553 0.383337
vt 0.471731 0.341844
vt 0.485388 0.296822
vt 0.490000 0.250000
vt 0.485388 0.203178
vt 0.471731 0.158156
vt 0.449553 0.116663
vt 0.419706 0.080294
vt 0.383337 0.050447
vt 0.341844 0.028269
vt 0.296822 0.014612
vt 0.250000 0.010000
vt 0.203178 0.014612
vt 0.158156 0.028269
vt 0.116663 0.050447
vt 0.080294 0.080294
vt 0.050447 0.116663
vt 0.028269 0.158156
vt 0.014612 0.203178
vt 0.010000 0.250000
vt 0.014612 0.296822
vt 0.028269 0.341844
vt 0.050447 0.383337
vt 0.080294 0.419706
vt 0.116663 0.449553
vt 0.158156 0.471731
vt 0.616663 0.449553
vt 0.658156 0.471731
vt 0.841844 0.471731
vt 0.203178 0.485388
vt 0.625000 1.000000
vt 0.875000 0.750000
vt 0.703178 0.485388
vt 0.750000 0.490000
vt 0.796822 0.485388
vt 0.883337 0.449553
vt 0.919706 0.419706
vt 0.580294 0.419706
vt 0.949553 0.383337
vt 0.550447 0.383337
vt 0.971731 0.341844
vt 0.528269 0.341844
vt 0.985388 0.296822
vt 0.514612 0.296822
vt 0.990000 0.250000
vt 0.510000 0.250000
vt 0.985388 0.203178
vt 0.514612 0.203178
vt 0.971731 0.158156
vt 0.528269 0.158156
vt 0.949553 0.116663
vt 0.550447 0.116663
vt 0.919706 0.080294
vt 0.580294 0.080294
vt 0.883337 0.050447
vt 0.616663 0.050447
vt 0.841844 0.028269
vt 0.658156 0.028269
vt 0.796822 0.014612
vt 0.703178 0.014612
vt 0.750000 0.010000
vn -1.0000 0.0000 0.0000
vn 0.0000 0.0000 -1.0000
vn 1.0000 0.0000 0.0000
vn 0.0000 0.0000 1.0000
vn 0.0000 -1.0000 0.0000
vn 0.0000 1.0000 0.0000
vn -0.1289 -0.1121 0.9853
vn -0.1432 -0.3194 0.9367
vn -0.1722 -0.5045 0.8461
vn -0.2135 -0.6574 0.7227
vn -0.2637 -0.7729 0.5771
vn -0.3199 -0.8496 0.4192
vn -0.3792 -0.8888 0.2574
vn -0.4393 -0.8930 0.0981
vn -0.4981 -0.8654 -0.0538
vn -0.5538 -0.8096 -0.1944
vn -0.6049 -0.7290 -0.3205
vn -0.6499 -0.6270 -0.4296
vn -0.6877 -0.5071 -0.5195
vn -0.7173 -0.3733 -0.5884
vn -0.7378 -0.2292 -0.6349
vn -0.7486 -0.0791 -0.6582
vn -0.7496 0.0729 -0.6579
vn -0.7407 0.2227 -0.6339
vn -0.7222 0.3662 -0.5868
vn -0.6946 0.4995 -0.5177
vn -0.6589 0.6187 -0.4278
vn -0.6158 0.7204 -0.3190
vn -0.5665 0.8010 -0.1933
vn -0.5123 0.8572 -0.0531
vn -0.4546 0.8852 0.0987
vn -0.3948 0.8817 0.2582
vn -0.3351 0.8431 0.4205
vn -0.2777 0.7666 0.5789
vn -0.2254 0.6508 0.7250
vn -0.1814 0.4972 0.8485
vn 0.9990 0.0074 -0.0445
vn -0.1490 0.3112 0.9386
vn -0.1309 0.1034 0.9860
vn 0.9990 0.0073 -0.0446
usemtl None
s off
f 2/1/1 3/2/1 1/3/1
f 4/4/2 7/5/2 3/2/2
f 8/6/3 5/7/3 7/5/3
f 6/8/4 1/9/4 5/7/4
f 7/5/5 1/10/5 3/11/5
f 4/12/6 6/8/6 8/6/6
f 9/13/7 41/14/7 10/15/7
f 10/15/8 41/14/8 11/16/8
f 11/16/9 41/14/9 12/17/9
f 12/17/10 41/14/10 13/18/10
f 13/18/11 41/14/11 14/19/11
f 14/19/12 41/14/12 15/20/12
f 15/20/13 41/14/13 16/21/13
f 16/21/14 41/14/14 17/22/14
f 17/22/15 41/14/15 18/23/15
f 18/23/16 41/14/16 19/24/16
f 19/24/17 41/14/17 20/25/17
f 20/25/18 41/14/18 21/26/18
f 21/26/19 41/14/19 22/27/19
f 22/27/20 41/14/20 23/28/20
f 23/28/21 41/14/21 24/29/21
f 24/29/22 41/14/22 25/30/22
f 25/30/23 41/14/23 26/31/23
f 26/31/24 41/14/24 27/32/24
f 27/32/25 41/14/25 28/33/25
f 28/33/26 41/14/26 29/34/26
f 29/34/27 41/14/27 30/35/27
f 30/35/28 41/14/28 31/36/28
f 31/36/29 41/14/29 32/37/29
f 32/37/30 41/14/30 33/38/30
f 33/38/31 41/14/31 34/39/31
f 34/39/32 41/14/32 35/40/32
f 35/40/33 41/14/33 36/41/33
f 36/41/34 41/14/34 37/42/34
f 37/42/35 41/14/35 38/43/35
f 38/43/36 41/14/36 39/44/36
f 38/45/37 39/46/37 11/47/37
f 39/44/38 41/14/38 40/48/38
f 40/48/39 41/14/39 9/13/39
f 2/1/1 4/4/1 3/2/1
f 4/4/2 8/6/2 7/5/2
f 8/6/3 6/8/3 5/7/3
f 6/8/4 2/49/4 1/9/4
f 7/5/5 5/7/5 1/10/5
f 4/12/6 2/50/6 6/8/6
f 40/51/40 9/52/40 10/53/40
f 10/53/37 11/47/37 39/46/37
f 11/47/37 12/54/37 38/45/37
f 10/53/37 39/46/37 40/51/37
f 12/54/37 13/55/37 37/56/37
f 13/55/37 14/57/37 36/58/37
f 14/57/37 15/59/37 35/60/37
f 15/59/37 16/61/37 34/62/37
f 14/57/37 35/60/37 36/58/37
f 16/61/37 17/63/37 33/64/37
f 17/63/37 18/65/37 32/66/37
f 18/65/37 19/67/37 31/68/37
f 19/67/37 20/69/37 30/70/37
f 18/65/37 31/68/37 32/66/37
f 20/69/37 21/71/37 29/72/37
f 21/71/37 22/73/37 28/74/37
f 22/73/37 23/75/37 27/76/37
f 23/75/37 24/77/37 26/78/37
f 22/73/37 27/76/37 28/74/37
f 24/77/37 25/79/37 26/78/37
f 26/78/37 27/76/37 23/75/37
f 28/74/37 29/72/37 21/71/37
f 29/72/37 30/70/37 20/69/37
f 30/70/37 31/68/37 19/67/37
f 32/66/37 33/64/37 17/63/37
f 33/64/37 34/62/37 16/61/37
f 34/62/37 35/60/37 15/59/37
f 36/58/37 37/56/37 13/55/37
f 37/56/37 38/45/37 12/54/37